{"title":"Not Since You.2009.DvDRip.H264.Feel-Free","uid":6059846,"size":1108029810,"categoryP":"video","categoryS":"movies","magnet":"?xt=urn:btih:9833fb7eafe9e6736fc986f5faa8bf74661f2c49&amp;dn=Not+Since+You.2009.DvDRip.H264.Feel-Free&amp;tr=udp%3A%2F%2Ftracker.openbittorrent.com%3A80&amp;tr=udp%3A%2F%2Fopen.demonii.com%3A1337&amp;tr=udp%3A%2F%2Ftracker.coppersurfer.tk%3A6969&amp;tr=udp%3A%2F%2Fexodus.desync.com%3A6969","seeders":1,"leechers":1,"uploader":"neon","files":-1,"time":1293067093,"description":"Genre:Drama | Romance\nLanguage:English\n &lt;a href=&quot; http://www.imdb.com/title/tt1072438/&quot; rel=&quot;nofollow&quot; target=&quot;_NEW&quot;&gt; http://www.imdb.com/title/tt1072438/&lt;/a&gt;\nSource:DVD\n\n\nFormat : MPEG-4\nFormat profile : Base Media\nCodec ID : isom\nFile size : 1.03 GiB\nDuration : 1h 27mn\nOverall bit rate : 1 686 Kbps\nMovie name : Not.Since.You.2009.DvDRip.H264.Feel-Free\n\n\nVideo\nFormat settings, CABAC : Yes\nFormat settings, ReFrames : 4 frames\nFormat settings, GOP : M=1, N=32\nCodec ID : avc1\nCodec ID/Info : Advanced Video Coding\nDuration : 1h 27mn\nBit rate mode : Variable\nBit rate : 1 500 Kbps\nWidth : 720 pixels\nHeight : 304 pixels\nDisplay aspect ratio : 2.35:1\nFrame rate mode : Constant\nFrame rate : 23.976 fps\nColor space : YUV\nChroma subsampling : 4:2:0\nBit depth : 8 bits\nScan type : Progressive\nBits/(Pixel*Frame) : 0.286\nStream size : 947 MiB (90%)\n\nAudio\nID : 2\nFormat : AAC\nFormat/Info : Advanced Audio Codec\nFormat version : Version 4\nFormat profile : LC\nCodec ID : 40\nDuration : 1h 27mn\nBit rate mode : Variable\nBit rate : 165 Kbps\nChannel(s) : 2 channels\nChannel positions : Front: L R\nSampling rate : 48.0 KHz\nStream size : 103 MiB (10%)\n\n\nPlot:\nA romantic drama about a tight-knit group of college friends who graduated from NYU the year of 9/11 and reunite years later for a weekend wedding in Georgia\n &lt;a href=&quot;\nhttp://rapidhdd.com/images/59764vlcsnap-2010-12-23-00h43m22s58.png&quot; rel=&quot;nofollow&quot; target=&quot;_NEW&quot;&gt;\nhttp://rapidhdd.com/images/59764vlcsnap-2010-12-23-00h43m22s58.png&lt;/a&gt; &lt;a href=&quot;\nhttp://www.rapidhdd.com/images/365969vlcsnap-2010-12-23-00h43m33s0.png&quot; rel=&quot;nofollow&quot; target=&quot;_NEW&quot;&gt;\nhttp://www.rapidhdd.com/images/365969vlcsnap-2010-12-23-00h43m33s0.png&lt;/a&gt; &lt;a href=&quot;\nhttp://www.rapidhdd.com/images/454870vlcsnap-2010-12-23-00h43m44s0.png&quot; rel=&quot;nofollow&quot; target=&quot;_NEW&quot;&gt;\nhttp://www.rapidhdd.com/images/454870vlcsnap-2010-12-23-00h43m44s0.png&lt;/a&gt; &lt;a href=&quot;\nhttp://www.rapidhdd.com/images/198480vlcsnap-2010-12-23-00h44m23s156.png&quot; rel=&quot;nofollow&quot; target=&quot;_NEW&quot;&gt;\nhttp://www.rapidhdd.com/images/198480vlcsnap-2010-12-23-00h44m23s156.png&lt;/a&gt;","torrent":{"xt":"urn:btih:9833fb7eafe9e6736fc986f5faa8bf74661f2c49","amp;dn":"Not+Since+You.2009.DvDRip.H264.Feel-Free","amp;tr":["udp%3A%2F%2Ftracker.openbittorrent.com%3A80","udp%3A%2F%2Fopen.demonii.com%3A1337","udp%3A%2F%2Ftracker.coppersurfer.tk%3A6969","udp%3A%2F%2Fexodus.desync.com%3A6969"],"infoHash":"9833fb7eafe9e6736fc986f5faa8bf74661f2c49","infoHashBuffer":{"type":"Buffer","data":[152,51,251,126,175,233,230,115,111,201,134,245,250,168,191,116,102,31,44,73]},"announce":[],"urlList":[]}}